HIERARCHY
ROOT root
{
	OFFSET	0	13.1	24.9
	CHANNELS 6  Xposition Yposition Zposition Xrotation Yrotation Zrotation
	JOINT spine_1
	{
		OFFSET	0	9.99999	0
		CHANNELS 3  Xrotation Yrotation Zrotation
		JOINT spine_2
		{
			OFFSET	0	112	-10
			CHANNELS 3  Xrotation Yrotation Zrotation
			JOINT spine_3
			{
				OFFSET	0	206.5	19.3
				CHANNELS 3  Xrotation Yrotation Zrotation
				JOINT spine_4
				{
					OFFSET	0	110.4	14.6
					CHANNELS 3  Xrotation Yrotation Zrotation
					JOINT neck_1
					{
						OFFSET	0	71.8	-50.3
						CHANNELS 3  Xrotation Yrotation Zrotation
						JOINT neck_2
						{
							OFFSET	0	86.2	-25.8
							CHANNELS 3  Xrotation Yrotation Zrotation
							JOINT head_ee
							{
								OFFSET	0	179.8	-8.7
								CHANNELS 3  Xrotation Yrotation Zrotation
								End Site
								{
									OFFSET	1	0	0
								}
							}
						}
					}
					JOINT left_clavicle
					{
						OFFSET	-43.2	22.4	-70.8
						CHANNELS 3  Xrotation Yrotation Zrotation
						JOINT left_shoulder
						{
							OFFSET	-93.9	-5.79999	48.7
							CHANNELS 3  Xrotation Yrotation Zrotation
							JOINT left_elbow
							{
								OFFSET	-291.4	-30.8	15.2
								CHANNELS 3  Xrotation Yrotation Zrotation
								JOINT left_lowarm_twist
								{
									OFFSET	-110.7	-3.89999	13.6
									CHANNELS 3  Xrotation Yrotation Zrotation
									JOINT left_hand
									{
										OFFSET	-110.7	-3.89999	13.6
										CHANNELS 3  Xrotation Yrotation Zrotation
										JOINT left_ee
										{
											OFFSET	-80.8	-5.10001	12.1
											CHANNELS 3  Xrotation Yrotation Zrotation
											End Site
											{
												OFFSET	1	0	0
											}
										}
									}
								}
							}
						}
					}
					JOINT right_clavicle
					{
						OFFSET	43.2	22.4	-70.8
						CHANNELS 3  Xrotation Yrotation Zrotation
						JOINT right_shoulder
						{
							OFFSET	93.9	-5.79999	48.7
							CHANNELS 3  Xrotation Yrotation Zrotation
							JOINT right_elbow
							{
								OFFSET	291.4	-30.8	15.2
								CHANNELS 3  Xrotation Yrotation Zrotation
								JOINT right_lowarm_twist
								{
									OFFSET	110.7	-3.89999	13.6
									CHANNELS 3  Xrotation Yrotation Zrotation
									JOINT right_hand
									{
										OFFSET	110.7	-3.89999	13.6
										CHANNELS 3  Xrotation Yrotation Zrotation
										JOINT right_ee
										{
											OFFSET	80.8	-5.10001	12.1
											CHANNELS 3  Xrotation Yrotation Zrotation
											End Site
											{
												OFFSET	1	0	0
											}
										}
									}
								}
							}
						}
					}
				}
			}
		}
	}
	JOINT left_hip
	{
		OFFSET	-82.8	-127.5	0.300001
		CHANNELS 3  Xrotation Yrotation Zrotation
		JOINT left_knee
		{
			OFFSET	-28.2	-396.7	2.2
			CHANNELS 3  Xrotation Yrotation Zrotation
			JOINT left_ankle
			{
				OFFSET	-11.7	-411.3	35.4
				CHANNELS 3  Xrotation Yrotation Zrotation
				JOINT left_toes
				{
					OFFSET	0	-60	-88.6
					CHANNELS 3  Xrotation Yrotation Zrotation
					JOINT left_foot_ee
					{
						OFFSET	-22.5	-16.5	-42.2
						CHANNELS 3  Xrotation Yrotation Zrotation
						End Site
						{
							OFFSET	1	0	0
						}
					}
				}
			}
		}
	}
	JOINT right_hip
	{
		OFFSET	82.8	-127.5	0.300001
		CHANNELS 3  Xrotation Yrotation Zrotation
		JOINT right_knee
		{
			OFFSET	28.2	-396.7	2.2
			CHANNELS 3  Xrotation Yrotation Zrotation
			JOINT right_ankle
			{
				OFFSET	11.7	-411.3	35.4
				CHANNELS 3  Xrotation Yrotation Zrotation
				JOINT right_toes
				{
					OFFSET	0	-60	-88.6
					CHANNELS 3  Xrotation Yrotation Zrotation
					JOINT right_foot_ee
					{
						OFFSET	22.5	-16.5	-42.2
						CHANNELS 3  Xrotation Yrotation Zrotation
						End Site
						{
							OFFSET	1	0	0
						}
					}
				}
			}
		}
	}
}
MOTION
Frames: 9
Frame Time: 0.02
3177.02 653.055 -1669.29 -9.21858588411 34.1181637162 13.7581109501 4.40657 0.184923 -0.862442 4.40695 0.239425 -0.848928 4.40315 0.351459 -0.809002 4.4023 0.219287 -0.854351 -10.4853 17.7817 -4.07531 -11.0078 36.2446 0.922035 -0.0 0.0 -0.0 -2.56516 3.85359 -4.32147 -29.2662 -24.4567 86.8869 0.286477 -8.07721 0.0202264 36.9738 -0.20129 -4.63793 2.56105 -3.3159 16.0318 -0.0 0.0 -0.0 9.79576 26.7774 -18.323 -9.81448 26.6833 -60.5318 2.64482 52.6379 -1.30842 26.0413 -0.171649 3.29363 4.61456 -20.8028 -39.0573 0.0 0.0 0.0 29.9445 2.61219 -20.4188 -6.44978 0.211317 0.966774 -19.9323 11.435 2.99984 39.8567 -0.0 -0.0 -0.0 0.0 -0.0 2.72613 36.6977 -8.58592 -27.5802 -0.129117 -4.18984 15.669 -2.64581 2.18781 35.1201 -0.0 -0.0 0.0 0.0 0.0 
3177.02 653.055 -1669.29 -9.23317317453 34.2503895805 13.7840735999 4.40657 0.184923 -0.862442 4.40695 0.239425 -0.848928 4.40315 0.351459 -0.809002 4.4023 0.219287 -0.854351 -10.4853 17.7817 -4.07531 -11.0078 36.2446 0.922035 -0.0 0.0 -0.0 -2.56516 3.85359 -4.32147 -29.2662 -24.4567 86.8869 0.286477 -8.07721 0.0202264 36.9738 -0.20129 -4.63793 2.56105 -3.3159 16.0318 -0.0 0.0 -0.0 9.79576 26.7774 -18.323 -9.81448 26.6833 -60.5318 2.64482 52.6379 -1.30842 26.0413 -0.171649 3.29363 4.61456 -20.8028 -39.0573 0.0 0.0 0.0 29.9445 2.61219 -20.4188 -6.44978 0.211317 0.966774 -19.9323 11.435 2.99984 39.8567 -0.0 -0.0 -0.0 0.0 -0.0 2.72613 36.6977 -8.58592 -27.5802 -0.129117 -4.18984 15.669 -2.64581 2.18781 35.1201 -0.0 -0.0 0.0 0.0 0.0 
3154.89963573 651.472 -1678.2903547 -8.16288718094 35.2212702662 12.6881117074 4.49685 0.258604 -0.792182 4.49714 0.308486 -0.774122 4.49277 0.408695 -0.726223 4.49215 0.288877 -0.781651 -11.4622 18.376 -1.15315 -12.179 35.5587 4.28084 -0.0 0.0 -0.0 -3.06768 5.06915 -5.04411 -28.9252 -26.3444 85.4688 0.328753 -9.24989 0.026595 37.5822 -0.229514 -4.71042 2.36993 -2.85378 14.8891 -0.0 0.0 -0.0 9.55891 27.4841 -17.7161 -10.6082 26.2588 -60.8669 2.56923 51.8341 -1.24866 28.4723 -0.111039 3.59823 4.25067 -19.0171 -35.856 0.0 0.0 0.0 30.0334 2.66722 -19.859 -13.0348 0.31359 1.9715 -13.3166 8.51733 1.99304 40.0697 -0.0 -0.0 -0.0 0.0 -0.0 -5.2841 38.0925 -4.44359 -23.9057 -0.228862 -3.63484 14.3657 -0.75673 2.02352 33.2915 -0.0 -0.0 0.0 0.0 0.0 
3123.18990556 656.12 -1674.93002948 -7.71252159142 35.6276598977 10.3573937902 4.47744 0.276588 -0.704121 4.47766 0.320832 -0.685095 4.47367 0.4093 -0.63621 4.47323 0.303689 -0.692864 -12.7375 18.6171 0.481708 -13.6407 35.1202 6.37073 -0.0 0.0 -0.0 -2.80531 4.98258 -4.57301 -27.4485 -25.9169 85.6727 0.351953 -9.89016 0.0304521 35.84 -0.150754 -4.50207 2.24949 -0.585529 14.9754 -0.0 0.0 -0.0 9.19588 27.9461 -16.8569 -11.8332 26.0767 -62.0883 2.4535 50.5453 -1.15847 24.6108 -0.201254 3.11329 4.06966 -21.379 -34.9546 0.0 0.0 0.0 30.4206 4.13849 -15.719 -16.1053 0.321682 2.44248 -12.9458 9.39771 1.93693 40.4854 -0.0 -0.0 -0.0 0.0 -0.0 -8.96405 42.3127 -1.74758 -24.6181 -0.21231 -3.74292 6.8135 -12.6989 0.98184 35.2494 -0.0 -0.0 0.0 0.0 0.0 
3123.14493199 656.12 -1674.48288423 -7.75881306495 36.0990624916 10.4364084559 4.47744 0.276588 -0.704121 4.47766 0.320832 -0.685095 4.47367 0.4093 -0.63621 4.47323 0.303689 -0.692864 -12.7375 18.6171 0.481708 -13.6407 35.1202 6.37073 -0.0 0.0 -0.0 -2.80531 4.98258 -4.57301 -27.4485 -25.9169 85.6727 0.351953 -9.89016 0.0304521 35.84 -0.150754 -4.50207 2.24949 -0.585529 14.9754 -0.0 0.0 -0.0 9.19588 27.9461 -16.8569 -11.8332 26.0767 -62.0883 2.4535 50.5453 -1.15847 24.6108 -0.201254 3.11329 4.06966 -21.379 -34.9546 0.0 0.0 0.0 30.4206 4.13849 -15.719 -16.1053 0.321682 2.44248 -12.9458 9.39771 1.93693 40.4854 -0.0 -0.0 -0.0 0.0 -0.0 -8.96405 42.3127 -1.74758 -24.6181 -0.21231 -3.74292 6.8135 -12.6989 0.98184 35.2494 -0.0 -0.0 0.0 0.0 0.0 
3123.15682784 656.12 -1674.6048551 -7.74608258919 35.9705187132 10.4147681727 4.47744 0.276588 -0.704121 4.47766 0.320832 -0.685095 4.47367 0.4093 -0.63621 4.47323 0.303689 -0.692864 -12.7375 18.6171 0.481708 -13.6407 35.1202 6.37073 -0.0 0.0 -0.0 -2.80531 4.98258 -4.57301 -27.4485 -25.9169 85.6727 0.351953 -9.89016 0.0304521 35.84 -0.150754 -4.50207 2.24949 -0.585529 14.9754 -0.0 0.0 -0.0 9.19588 27.9461 -16.8569 -11.8332 26.0767 -62.0883 2.4535 50.5453 -1.15847 24.6108 -0.201254 3.11329 4.06966 -21.379 -34.9546 0.0 0.0 0.0 30.4206 4.13849 -15.719 -16.1053 0.321682 2.44248 -12.9458 9.39771 1.93693 40.4854 -0.0 -0.0 -0.0 0.0 -0.0 -8.96405 42.3127 -1.74758 -24.6181 -0.21231 -3.74292 6.8135 -12.6989 0.98184 35.2494 -0.0 -0.0 0.0 0.0 0.0 
3102.68195079 658.869 -1679.60585862 -8.12555870456 36.1628316966 9.56354459241 4.53492 0.192483 -0.653451 4.53513 0.233673 -0.639879 4.53238 0.316267 -0.603345 4.53193 0.217013 -0.645719 -15.9506 18.8468 3.59811 -17.223 34.0897 10.4858 -0.0 0.0 -0.0 -2.98107 5.48729 -4.80764 -26.0133 -26.327 84.8155 0.370644 -10.4042 0.033745 35.2557 -0.125764 -4.43168 2.01029 0.852502 13.8966 -0.0 0.0 -0.0 8.64502 27.8746 -15.6457 -12.3575 27.1133 -63.0743 2.45353 50.5457 -1.1585 22.8356 -0.231714 2.88859 3.86746 -22.1484 -33.6089 0.0 0.0 0.0 30.6192 5.14352 -13.5992 -17.8545 0.315006 2.71076 -7.95715 6.82941 1.18338 40.1294 -0.0 -0.0 -0.0 0.0 -0.0 -9.79905 45.1632 -1.24639 -23.7975 -0.231257 -3.61842 0.115944 -19.5298 0.0172872 32.5621 -0.0 -0.0 0.0 0.0 0.0 
3074.97010315 656.5 -1687.49901847 -7.58738718112 36.4092584122 8.41961234612 4.58123 0.090366 -0.669538 4.58147 0.132786 -0.662431 4.57976 0.218717 -0.639227 4.57921 0.115021 -0.665746 -17.4025 19.4719 4.80874 -18.9335 34.8083 12.4085 -0.0 0.0 -0.0 -2.97191 5.91878 -4.71234 -24.4499 -26.3346 83.5005 0.383383 -10.7536 0.0360837 34.7384 -0.104239 -4.36914 1.63907 1.98176 11.8051 -0.0 0.0 -0.0 8.71898 27.3267 -15.8705 -11.8031 27.1311 -63.6404 2.1074 46.2259 -0.899526 23.0384 -0.228587 2.91431 3.29234 -21.4661 -29.3916 0.0 0.0 0.0 30.0802 6.78074 -11.241 -24.3636 0.218378 3.70433 2.49454 9.56436 -0.362866 38.9739 -0.0 -0.0 -0.0 0.0 -0.0 -8.37761 47.6089 -3.62577 -28.8284 -0.0871558 -4.3768 -2.26209 -26.4929 -0.349847 33.4512 -0.0 -0.0 0.0 0.0 0.0 
3058.41154364 654.194 -1699.76275801 -6.9705735545 36.1427462667 7.32951573127 4.3643 0.00633688 -0.510812 4.36445 0.0388279 -0.509374 4.364 0.107329 -0.49945 4.36366 0.0271042 -0.510132 -16.7504 19.7922 5.06891 -18.208 35.1954 12.5405 -0.0 0.0 -0.0 -2.92298 5.31468 -4.73156 -23.6036 -26.6341 82.1469 0.417908 -11.6963 0.0428048 34.655 -0.100824 -4.35905 1.48813 2.33039 10.9192 -0.0 0.0 -0.0 8.96547 26.8412 -16.4697 -11.4558 27.178 -64.8384 1.93287 43.7511 -0.776111 22.2832 -0.239772 2.81848 2.84388 -22.2622 -26.5268 0.0 0.0 0.0 29.6486 6.46959 -10.7498 -28.2797 0.106104 4.29473 5.44869 7.28217 -0.785961 40.0662 -0.0 -0.0 -0.0 0.0 -0.0 -7.43042 48.8344 -4.92719 -30.7564 -0.0143505 -4.66372 -8.95195 -29.5545 -1.42638 31.1314 -0.0 -0.0 0.0 0.0 0.0 
